HIERARCHY
ROOT joint_Root
{
	OFFSET 0.0 0.0 0.0
	CHANNELS 6 Xposition Yposition Zposition Zrotation Xrotation Yrotation 
	JOINT Hips
	{
		OFFSET -0.726466 93.3139 -2.00062
		CHANNELS 6 Xposition Yposition Zposition Zrotation Xrotation Yrotation 
		JOINT Spine
		{
			OFFSET 15.7357 0.0 0.0
			CHANNELS 6 Xposition Yposition Zposition Zrotation Xrotation Yrotation 
			JOINT Chest
			{
				OFFSET 8.98455 -0.406207 0.0
				CHANNELS 6 Xposition Yposition Zposition Zrotation Xrotation Yrotation 
				JOINT Neck
				{
					OFFSET 16.3773 0.0 0.0
					CHANNELS 6 Xposition Yposition Zposition Zrotation Xrotation Yrotation 
					JOINT Head
					{
						OFFSET 6.45672 0.0 0.0
						CHANNELS 6 Xposition Yposition Zposition Zrotation Xrotation Yrotation 
						End Site
						{
							OFFSET 0.0 0.0 0.0
						}
					}
				}
				JOINT Shoulder_L
				{
					OFFSET 12.9942 -0.242716 4.98039
					CHANNELS 6 Xposition Yposition Zposition Zrotation Xrotation Yrotation 
					JOINT UpperArm_L
					{
						OFFSET 5.34809 0.0 0.0
						CHANNELS 6 Xposition Yposition Zposition Zrotation Xrotation Yrotation 
						JOINT LowerArm_L
						{
							OFFSET 24.3286 1.87007e-05 0.0
							CHANNELS 6 Xposition Yposition Zposition Zrotation Xrotation Yrotation 
							JOINT Hand_L
							{
								OFFSET 22.2916 0.0 0.0
								CHANNELS 6 Xposition Yposition Zposition Zrotation Xrotation Yrotation 
								End Site
								{
									OFFSET 0.0 0.0 0.0
								}
							}
						}
					}
				}
				JOINT Shoulder_R
				{
					OFFSET 12.9945 -0.242716 -4.98039
					CHANNELS 6 Xposition Yposition Zposition Zrotation Xrotation Yrotation 
					JOINT UpperArm_R
					{
						OFFSET -5.34813 0.0 0.0
						CHANNELS 6 Xposition Yposition Zposition Zrotation Xrotation Yrotation 
						JOINT LowerArm_R
						{
							OFFSET -24.3289 0.000322201 0.0
							CHANNELS 6 Xposition Yposition Zposition Zrotation Xrotation Yrotation 
							JOINT Hand_R
							{
								OFFSET -22.2915 -0.000108084 0.0
								CHANNELS 6 Xposition Yposition Zposition Zrotation Xrotation Yrotation 
								End Site
								{
									OFFSET 0.0 0.0 0.0
								}
							}
						}
					}
				}
			}
		}
		JOINT UpperLeg_L
		{
			OFFSET -2.19248 -6.46944 0.0
			CHANNELS 6 Xposition Yposition Zposition Zrotation Xrotation Yrotation 
			JOINT LowerLeg_L
			{
				OFFSET 39.0811 0.0 -1.23785e-05
				CHANNELS 6 Xposition Yposition Zposition Zrotation Xrotation Yrotation 
				JOINT Foot_L
				{
					OFFSET 40.9854 0.0 -1.26872e-05
					CHANNELS 6 Xposition Yposition Zposition Zrotation Xrotation Yrotation 
					JOINT Toes_L
					{
						OFFSET 11.7543 0.0 0.0
						CHANNELS 6 Xposition Yposition Zposition Zrotation Xrotation Yrotation 
						End Site
						{
							OFFSET 0.0 0.0 0.0
						}
					}
				}
			}
		}
		JOINT UpperLeg_R
		{
			OFFSET -2.19251 6.46944 0.0
			CHANNELS 6 Xposition Yposition Zposition Zrotation Xrotation Yrotation 
			JOINT LowerLeg_R
			{
				OFFSET -39.0811 -0.00228153 -0.0401928
				CHANNELS 6 Xposition Yposition Zposition Zrotation Xrotation Yrotation 
				JOINT Foot_R
				{
					OFFSET -40.9854 0.0 0.0
					CHANNELS 6 Xposition Yposition Zposition Zrotation Xrotation Yrotation 
					JOINT Toes_R
					{
						OFFSET -11.7543 0.0 0.0
						CHANNELS 6 Xposition Yposition Zposition Zrotation Xrotation Yrotation 
						End Site
						{
							OFFSET 0.0 0.0 0.0
						}
					}
				}
			}
		}
	}
}
MOTION
Frames:	4
Frame Time:	0.0333333
0.000000 0.000000 0.000000 0.000000 0.000000 -0.000000 -0.460183 77.787600 417.151000 -83.661200 6.717240 173.508000 15.735700 0.000005 -0.000001 96.810100 77.167300 -93.821200 8.984550 -0.406207 -0.000000 17.658900 3.246340 5.485380 16.377300 -0.000001 -0.000001 3.264720 0.825830 0.660453 6.456720 -0.000001 -0.000000 -3.122610 0.724049 -4.911060 12.994200 -0.242716 4.980390 -87.929700 -5.409420 -69.019600 5.348090 -0.000007 -0.000001 -66.994400 21.142200 2.814350 24.328600 0.000019 0.000005 2.687570 3.454980 -37.914700 22.291600 -0.000001 0.000005 -4.160290 5.614470 -12.248100 12.994500 -0.242716 -4.980390 90.498700 -1.560500 -72.270700 -5.348130 -0.000001 -0.000004 -41.819300 9.737970 -46.109000 -24.328900 0.000322 -0.000009 -8.303060 -4.254350 -63.049800 -22.291500 -0.000108 -0.000004 3.455970 5.617330 -12.438600 -2.192480 -6.469440 -0.000000 -178.414000 -10.650200 -48.832600 39.081100 -0.000007 -0.000012 -0.350800 -0.181830 117.401000 40.985400 -0.000006 -0.000013 7.740480 -2.807720 -43.473000 11.754300 -0.000000 0.000003 -0.009342 -0.098661 -20.595800 -2.192510 6.469440 -0.000001 -173.356000 13.047800 154.887000 -39.081100 -0.002282 -0.040193 0.210649 -0.085346 67.643200 -40.985400 0.000008 0.000006 3.025280 -4.301610 -96.691100 -11.754300 -0.000006 -0.000006 -0.004187 -0.053372 -18.744200
0.000000 0.000000 0.000000 0.000000 0.000000 -0.000000 -1.281810 80.053400 409.532000 -86.583000 8.893340 172.468000 15.735700 0.000005 -0.000001 100.946000 78.000200 -99.564900 8.984550 -0.406207 -0.000000 15.778100 4.587820 2.130620 16.377300 -0.000001 -0.000001 3.835510 0.878725 0.970544 6.456720 -0.000001 -0.000000 -1.929780 -0.966692 -3.925110 12.994200 -0.242716 4.980390 -87.746600 -5.374650 -67.212700 5.348090 -0.000007 -0.000001 -64.828400 20.061600 7.997020 24.328600 0.000019 0.000005 2.006270 2.487410 -38.911200 22.291600 -0.000001 0.000005 -3.462390 5.610580 -11.997100 12.994500 -0.242716 -4.980390 91.004900 -3.174480 -72.424100 -5.348130 -0.000001 -0.000004 -41.457100 7.740990 -49.343700 -24.328900 0.000322 -0.000009 -8.861310 -3.670070 -67.673000 -22.291500 -0.000108 -0.000004 3.838110 5.610010 -11.960700 -2.192480 -6.469440 -0.000000 177.734000 -9.679470 -53.779100 39.081100 -0.000007 -0.000012 -0.223525 -0.076160 108.817000 40.985400 -0.000006 -0.000013 5.110960 -1.155770 -51.300500 11.754300 -0.000000 0.000003 -0.005702 -0.068115 -19.348700 -2.192510 6.469440 -0.000001 -179.657000 13.481100 162.694000 -39.081100 -0.002282 -0.040193 0.115727 -0.066385 59.460800 -40.985400 0.000008 0.000006 2.639730 -0.558401 -92.287800 -11.754300 -0.000006 -0.000006 -1.319420 -1.461950 -22.697800
0.000000 0.000000 0.000000 0.000000 0.000000 -0.000000 -2.039150 83.351400 401.451000 -88.914300 9.567120 171.692000 15.735700 0.000005 -0.000001 104.432000 78.824900 -104.331000 8.984550 -0.406207 -0.000000 13.920300 5.512270 -0.471207 16.377300 -0.000001 -0.000001 4.786930 0.771766 1.179910 6.456720 -0.000001 -0.000000 -0.814900 -2.484730 -2.640350 12.994200 -0.242716 4.980390 -87.362100 -5.938560 -65.997100 5.348090 -0.000007 -0.000001 -63.598500 17.220200 12.116900 24.328600 0.000019 0.000005 1.527990 1.845240 -39.638200 22.291600 -0.000001 0.000005 -3.595220 5.611090 -12.029000 12.994500 -0.242716 -4.980390 91.307700 -4.018350 -71.957300 -5.348130 -0.000001 -0.000004 -42.482100 7.485250 -49.700600 -24.328900 0.000322 -0.000009 -8.558640 -2.906300 -71.380600 -22.291500 -0.000108 -0.000004 3.919770 5.605620 -11.683200 -2.192480 -6.469440 -0.000000 175.424000 -7.971130 -54.704000 39.081100 -0.000007 -0.000012 -0.071599 -0.006216 94.969300 40.985400 -0.000006 -0.000013 5.216480 -3.554490 -57.530100 11.754300 -0.000000 0.000003 -0.006403 -0.074463 -19.607700 -2.192510 6.469440 -0.000001 175.512000 12.137500 170.726000 -39.081100 -0.002282 -0.040193 0.026878 -0.020481 49.080100 -40.985400 0.000008 0.000006 1.643730 0.894546 -80.039600 -11.754300 -0.000006 -0.000006 -0.062218 -0.338916 -30.577700
0.000000 0.000000 0.000000 0.000000 0.000000 -0.000000 -2.669350 86.893400 393.337000 -90.390800 9.562430 170.645000 15.735700 0.000005 -0.000001 107.311000 79.581200 -108.144000 8.984550 -0.406207 -0.000000 12.223500 6.112660 -2.321100 16.377300 -0.000001 -0.000001 5.461200 0.754048 1.171150 6.456720 -0.000001 -0.000000 -0.299831 -3.561710 -1.313580 12.994200 -0.242716 4.980390 -86.752900 -7.090420 -65.315800 5.348090 -0.000007 -0.000001 -63.783800 14.539700 15.370700 24.328600 0.000019 0.000005 1.879950 2.227150 -40.183500 22.291600 -0.000001 0.000005 -3.322500 5.610840 -12.012900 12.994500 -0.242716 -4.980390 91.413400 -4.279920 -71.705800 -5.348130 -0.000001 -0.000004 -43.799800 8.272240 -48.263500 -24.328900 0.000322 -0.000009 -7.334420 -2.055600 -74.426700 -22.291500 -0.000108 -0.000004 2.985840 5.597060 -11.167000 -2.192480 -6.469440 -0.000000 174.726000 -6.105910 -52.818900 39.081100 -0.000007 -0.000012 0.037287 -0.008517 77.123700 40.985400 -0.000006 -0.000013 6.055590 -5.613030 -61.386100 11.754300 -0.000000 0.000003 -0.006766 -0.077648 -19.737600 -2.192510 6.469440 -0.000001 172.187000 12.272100 176.738000 -39.081100 -0.002282 -0.040193 0.057801 -0.065202 39.902200 -40.985400 0.000008 0.000006 2.582580 2.200480 -62.788400 -11.754300 -0.000006 -0.000006 -0.186491 -0.622181 -43.143500
